<svg width="99" height="23" viewBox="0 0 99 23" fill="none" xmlns="http://www.w3.org/2000/svg">
<path d="M58.4144 7.27534V22.224H54.0773V20.0407C53.6053 20.8275 52.9857 21.4274 52.2186 21.8404C51.4515 22.2535 50.586 22.46 49.6222 22.46C47.7537 22.46 46.3572 21.9388 45.4327 20.8963C44.5083 19.8538 44.046 18.2803 44.046 16.1757V7.27534H48.5011V16.2642C48.5011 18.0738 49.278 18.9786 50.8319 18.9786C51.7563 18.9786 52.5038 18.6638 53.0742 18.0344C53.6446 17.405 53.9298 16.5789 53.9298 15.5561V7.27534H58.4144ZM75.4086 0.459961V22.224H71.0125V20.0112C70.5601 20.7783 69.9209 21.3782 69.0947 21.8109C68.2686 22.2436 67.3344 22.46 66.2919 22.46C65.0134 22.46 63.8726 22.1355 62.8695 21.4765C61.8663 20.8176 61.0894 19.8932 60.5288 18.7032C59.9682 17.5132 59.6929 16.156 59.6929 14.6218C59.6929 13.0876 59.9682 11.7403 60.5288 10.57C61.0894 9.39961 61.8663 8.49483 62.8596 7.85558C63.8529 7.21633 64.9937 6.90162 66.2919 6.90162C67.295 6.90162 68.2096 7.11798 69.0357 7.53104C69.8619 7.95392 70.5011 8.53417 70.9535 9.2816V0.459961H75.4086ZM70.1274 17.9361C70.7175 17.1788 71.0125 16.097 71.0125 14.6808C71.0125 13.2843 70.7175 12.2123 70.1175 11.4551C69.5176 10.6978 68.6817 10.3241 67.5999 10.3241C66.4984 10.3241 65.6428 10.6978 65.0331 11.4452C64.4233 12.1927 64.1184 13.2548 64.1184 14.6317C64.1184 16.0478 64.4233 17.1395 65.0331 17.9164C65.6428 18.6933 66.4984 19.0769 67.5999 19.0769C68.7014 19.0671 69.5373 18.6933 70.1274 17.9361ZM92.4126 7.27534V22.224H88.0165V20.0112C87.5641 20.7783 86.9249 21.3782 86.0988 21.8109C85.2727 22.2436 84.3384 22.46 83.2959 22.46C81.9977 22.46 80.8569 22.1453 79.8636 21.5159C78.8703 20.8865 78.0934 19.9915 77.5328 18.8212C76.9723 17.6509 76.6969 16.3035 76.6969 14.7693C76.6969 13.2351 76.9723 11.8681 77.5328 10.6683C78.0934 9.46845 78.8703 8.544 79.8735 7.88508C80.8766 7.22616 82.0174 6.90162 83.2959 6.90162C84.3384 6.90162 85.2727 7.12782 86.0988 7.58021C86.9249 8.0326 87.5641 8.64235 88.0165 9.40945V7.27534H92.4126ZM87.1314 17.9459C87.7215 17.1985 88.0165 16.1167 88.0165 14.7005C88.0165 13.2843 87.7215 12.2025 87.1314 11.4452C86.5413 10.688 85.6956 10.3142 84.5941 10.3142C83.4926 10.3142 82.637 10.7077 82.0272 11.4944C81.4175 12.2812 81.1126 13.3728 81.1126 14.7693C81.1126 16.1659 81.4077 17.228 82.0076 17.9656C82.6075 18.7032 83.4631 19.0671 84.5842 19.0671C85.6956 19.0671 86.5413 18.6933 87.1314 17.9459ZM43.1511 22.4403H37.624L31.6839 15.6643V22.4403H27.1797V0.459961H31.6839V13.8056L37.3585 7.32451H42.7675L36.3455 14.5825L43.1511 22.4403Z" fill="#40196D"/>
<path d="M14.8207 22.4403L6.17613 12.4877L10.8967 22.4403H7.62181L2.80286 12.291L4.80912 22.4403H2.79303L0.786768 12.2714V22.4403H0V0.459961H0.786768V11.4256L2.82253 0.459961H4.82879L2.78319 11.4748L7.70049 0.459961H10.9361L6.04828 11.4354L14.9289 0.459961H20.0134L10.8181 11.8091L20.0527 22.4403H14.8207Z" fill="#40196D"/>
<path d="M96.146 22.2047C97.493 22.2047 98.585 21.1127 98.585 19.7657C98.585 18.4187 97.493 17.3267 96.146 17.3267C94.799 17.3267 93.707 18.4187 93.707 19.7657C93.707 21.1127 94.799 22.2047 96.146 22.2047Z" fill="#40196D"/>
</svg>